<svg version="1.1" id="Layer_1" xmlns="http://www.w3.org/2000/svg" xmlns:xlink="http://www.w3.org/1999/xlink" x="0px" y="0px"
	 width="100%" viewBox="0 0 200 200" enable-background="new 0 0 200 200" xml:space="preserve">
<path fill="#F8F5E9" opacity="1.000000" stroke="none" 
	d="
M117.000000,201.000000 
	C78.024071,201.000000 39.548149,201.000000 1.036112,201.000000 
	C1.036112,134.399109 1.036112,67.798203 1.036112,1.098643 
	C67.559090,1.098643 134.118378,1.098643 200.838837,1.098643 
	C200.838837,67.666351 200.838837,134.333145 200.838837,201.000000 
	C173.131821,201.000000 145.315903,201.000000 117.000000,201.000000 
M48.043201,105.004990 
	C49.076077,110.264679 50.108952,115.524376 50.905659,121.237961 
	C50.665115,121.473816 50.424572,121.709671 49.887199,121.247719 
	C49.203865,119.206734 48.700031,117.077904 47.762169,115.161476 
	C47.286545,114.189606 46.042080,112.959793 45.121166,112.939545 
	C37.170506,112.764687 29.214365,112.838928 21.231457,112.838928 
	C23.723185,144.035248 54.012615,182.332993 101.289673,182.152847 
	C149.321411,181.969833 178.729736,142.489624 180.686356,112.828934 
	C173.705963,112.828934 166.737488,113.028358 159.789352,112.738991 
	C156.641708,112.607910 154.493347,113.457817 152.409683,115.764435 
	C152.893326,111.863350 153.376968,107.962257 153.988602,103.146317 
	C153.919479,100.654655 153.850342,98.163002 153.824234,94.895309 
	C152.568298,89.885712 151.312363,84.876106 150.127106,79.352760 
	C150.366211,78.920631 150.605316,78.488503 151.238297,78.680779 
	C152.182495,81.331390 152.994125,84.041100 154.136536,86.603333 
	C154.589737,87.619804 155.760574,89.016907 156.632416,89.036995 
	C164.728043,89.223488 172.829697,89.147263 180.980606,89.147263 
	C177.162003,54.375252 143.983856,16.948500 95.396751,20.013651 
	C51.756096,22.766752 23.695417,59.016922 21.214800,89.170311 
	C27.534811,89.170311 33.845520,88.859901 40.109203,89.269196 
	C45.059452,89.592667 48.342644,88.640205 49.050888,83.073067 
	C49.271286,81.340652 50.412785,79.725426 51.543682,78.381149 
	C51.676716,78.883682 51.809753,79.386223 51.829685,80.614471 
	C51.212109,82.725777 50.594528,84.837074 49.607132,87.356064 
	C49.501366,87.882019 49.395596,88.407982 49.038853,89.614075 
	C48.996811,90.333786 48.954769,91.053505 48.547760,92.214203 
	C48.498089,92.768555 48.448421,93.322906 48.191677,94.365189 
	C48.217567,94.717644 48.243462,95.070099 48.096928,96.406326 
	C48.110321,98.994659 48.123714,101.582993 48.043201,105.004990 
M40.865677,104.965141 
	C40.994400,102.430496 41.678596,99.761520 41.106583,97.396347 
	C40.441216,94.645157 37.304379,93.704010 35.840900,95.897453 
	C34.456272,97.972725 34.523003,101.356155 34.888252,104.036575 
	C34.988110,104.769394 38.458843,105.042877 40.865677,104.965141 
M26.335186,104.912331 
	C28.392233,105.409409 30.449282,105.906494 32.506329,106.403572 
	C32.626785,105.867966 32.747242,105.332359 32.867699,104.796753 
	C31.678844,104.373779 30.489990,103.950798 30.673336,104.016029 
	C30.900930,100.864754 31.085197,98.313408 31.269463,95.762062 
	C29.322235,95.762062 27.375006,95.762062 25.427778,95.762062 
	C25.511198,96.387405 25.594620,97.012749 25.678040,97.638092 
	C26.964676,97.510475 28.251312,97.382858 30.682343,97.141724 
	C28.890848,100.062958 27.592138,102.180649 26.335186,104.912331 
M172.983917,104.448280 
	C171.777023,104.448280 170.570129,104.448280 168.410706,104.448280 
	C172.068222,107.065987 175.340302,106.836273 176.261124,103.913597 
	C177.039200,101.443977 175.532166,98.156105 174.599823,95.376854 
	C174.489822,95.048943 171.617371,95.647713 170.025482,95.816910 
	C170.056595,96.136238 170.087708,96.455566 170.118805,96.774895 
	C171.390076,97.056900 172.661346,97.338905 174.614563,97.772194 
	C173.070572,99.064438 172.137329,99.845520 171.367569,100.489761 
	C172.083649,101.647278 172.793671,102.794975 172.983917,104.448280 
M164.219833,100.454895 
	C163.445526,101.060333 162.671234,101.665779 161.896927,102.271225 
	C162.302643,102.707710 162.708359,103.144203 163.114075,103.580688 
	C164.626129,102.111206 166.444687,100.826645 167.498199,99.080505 
	C167.915085,98.389549 166.868774,95.824402 166.070969,95.600418 
	C164.459656,95.148026 162.562622,95.713402 160.663010,95.868874 
	C161.483749,99.013672 166.640518,94.733734 164.219833,100.454895 
z"/>
<path fill="#0C8A75" opacity="1.000000" stroke="none" 
	d="
M49.976944,86.948380 
	C50.594528,84.837074 51.212109,82.725777 52.111580,79.998413 
	C54.575684,75.442444 56.757893,71.502541 58.940102,67.562630 
	C58.397938,67.277359 57.855774,66.992081 57.313610,66.706810 
	C55.253277,70.490059 53.192940,74.273300 51.132607,78.056549 
	C50.412785,79.725426 49.271286,81.340652 49.050888,83.073067 
	C48.342644,88.640205 45.059452,89.592667 40.109203,89.269196 
	C33.845520,88.859901 27.534811,89.170311 21.214800,89.170311 
	C23.695417,59.016922 51.756096,22.766752 95.396751,20.013651 
	C143.983856,16.948500 177.162003,54.375252 180.980606,89.147263 
	C172.829697,89.147263 164.728043,89.223488 156.632416,89.036995 
	C155.760574,89.016907 154.589737,87.619804 154.136536,86.603333 
	C152.994125,84.041100 152.182495,81.331390 150.972687,78.025635 
	C144.920853,65.448608 136.279129,56.435478 123.684761,50.936829 
	C107.887169,43.908817 92.526375,44.424747 76.229652,51.680069 
	C78.024857,52.175049 78.869347,52.407894 80.085251,52.761688 
	C87.546646,55.264370 90.419899,61.978676 85.645355,66.374840 
	C82.776749,69.016106 81.957573,71.824295 81.152664,75.150925 
	C80.655869,77.204170 80.016838,79.573662 78.621246,80.996414 
	C73.355286,86.364876 67.540215,91.201973 63.152184,96.973145 
	C63.391827,93.007744 63.687160,89.516449 64.130829,85.730118 
	C65.624817,83.709656 66.962029,81.987068 63.093773,81.541153 
	C63.060310,77.921242 63.060310,74.757904 63.060310,71.594574 
	C62.360046,71.600861 61.659779,71.607140 60.959515,71.613426 
	C60.959515,80.719078 60.959515,89.824722 60.524818,98.979019 
	C55.469002,100.058441 51.629009,98.527985 48.269352,95.422554 
	C48.243462,95.070099 48.217567,94.717644 48.464600,93.898911 
	C48.795921,92.879486 48.854321,92.326355 48.912724,91.773216 
	C48.954769,91.053505 48.996811,90.333786 49.350903,89.074738 
	C49.767616,88.006386 49.872280,87.477386 49.976944,86.948380 
M74.504417,36.713081 
	C74.672707,37.936932 74.840996,39.160782 75.005013,40.353592 
	C72.672104,38.337070 70.488396,36.449516 68.304695,34.561966 
	C67.972023,34.914234 67.639359,35.266502 67.306694,35.618771 
	C67.552185,37.895309 67.797684,40.171848 68.122742,43.186176 
	C65.577919,40.890911 63.799774,39.287136 62.021626,37.683361 
	C61.604809,38.139603 61.187992,38.595840 60.771175,39.052082 
	C62.210182,40.810429 63.499165,42.726257 65.131699,44.281452 
	C66.668938,45.745861 68.568336,46.830105 70.308403,48.081600 
	C70.334480,45.992008 70.344200,43.901901 70.409691,41.813541 
	C70.416954,41.581810 70.742210,41.360046 71.991684,39.768959 
	C72.954185,41.332211 73.557373,43.048901 74.766754,43.967625 
	C75.378624,44.432442 78.162529,43.284363 78.141922,43.154270 
	C77.531036,39.298752 76.691055,35.479527 75.887390,31.654552 
	C75.274841,31.756426 74.662292,31.858301 74.049736,31.960175 
	C74.113930,33.288826 74.178116,34.617481 74.504417,36.713081 
M100.898666,28.368965 
	C98.361847,28.154430 95.825020,27.939894 92.879456,27.690794 
	C93.131416,32.399548 93.340439,36.306019 93.545418,40.136799 
	C100.131050,40.738522 102.953629,39.612495 102.777832,36.474960 
	C102.637054,33.962482 101.986298,31.478579 100.898666,28.368965 
M135.470535,35.807507 
	C134.633438,35.590054 133.174454,35.003639 133.051926,35.210144 
	C131.003738,38.662270 129.122620,42.213528 127.204323,45.742718 
	C127.501907,46.033123 127.799500,46.323532 128.097092,46.613937 
	C129.334152,46.087318 130.571228,45.560699 131.695923,45.081913 
	C132.542709,46.828426 133.297501,48.385242 133.887192,49.601501 
	C135.414062,46.438179 136.734940,43.701622 138.074646,40.926056 
	C136.905487,40.926056 135.126312,40.926056 133.025436,40.926056 
	C133.894058,39.175739 134.550903,37.852161 135.470535,35.807507 
M107.262337,31.503668 
	C108.508041,32.383064 109.753754,33.262459 110.360550,33.690823 
	C108.664253,35.027344 105.236832,36.606384 105.360695,37.824245 
	C105.898682,43.114136 110.518616,39.520821 113.034653,41.032547 
	C115.265991,32.648388 114.438187,31.117922 107.262337,31.503668 
M88.615837,37.139267 
	C89.025543,36.426376 89.870148,35.154331 89.779953,35.084183 
	C88.351341,33.973053 86.699913,32.111633 85.309662,32.269756 
	C83.819695,32.439220 81.452682,34.530205 81.438431,35.804611 
	C81.416565,37.760834 82.603508,40.525997 84.168144,41.467113 
	C85.561852,42.305428 88.164482,41.133892 90.233582,40.849358 
	C90.154305,40.336109 90.075020,39.822865 89.995735,39.309616 
	C88.313049,39.309616 86.630363,39.309616 84.947678,39.309616 
	C84.908974,39.000328 84.870270,38.691044 84.831566,38.381756 
	C85.836472,38.026730 86.841377,37.671707 88.615837,37.139267 
M117.056625,38.377140 
	C117.075569,39.666470 117.094521,40.955795 117.113464,42.245125 
	C117.801537,41.815868 118.620171,41.507648 119.152191,40.933735 
	C120.522758,39.455250 121.766464,37.859177 123.060852,36.310085 
	C122.810013,38.436649 122.554642,40.562702 122.313271,42.690342 
	C122.277664,43.004162 122.308327,43.325504 122.308327,44.254765 
	C126.262794,44.091858 126.105698,40.723461 126.472427,38.612381 
	C127.520592,32.578598 121.808937,34.923832 119.268997,32.630322 
	C118.469063,34.647476 117.873245,36.149921 117.056625,38.377140 
M61.336979,65.523430 
	C61.144371,65.472321 60.951759,65.421211 60.759148,65.370110 
	C60.882889,65.494537 61.006626,65.618958 61.336979,65.523430 
M65.262756,61.161209 
	C65.391541,61.040195 65.520325,60.919182 65.649109,60.798164 
	C65.519653,60.819023 65.390205,60.839882 65.262756,61.161209 
M70.523705,56.662918 
	C70.472557,56.855633 70.421402,57.048351 70.370255,57.241062 
	C70.494720,57.117268 70.619194,56.993469 70.523705,56.662918 
M72.523788,55.664448 
	C72.596725,55.733051 72.669655,55.801655 72.523788,55.664448 
z"/>
<path fill="#344553" opacity="1.000000" stroke="none" 
	d="
M153.017914,116.154617 
	C154.493347,113.457817 156.641708,112.607910 159.789352,112.738991 
	C166.737488,113.028358 173.705963,112.828934 180.686356,112.828934 
	C178.729736,142.489624 149.321411,181.969833 101.289673,182.152847 
	C54.012615,182.332993 23.723185,144.035248 21.231457,112.838928 
	C29.214365,112.838928 37.170506,112.764687 45.121166,112.939545 
	C46.042080,112.959793 47.286545,114.189606 47.762169,115.161476 
	C48.700031,117.077904 49.203865,119.206734 50.065765,121.945343 
	C53.173279,126.925385 56.102230,131.207794 59.171722,135.746368 
	C60.716843,137.360489 62.121418,138.718475 63.749359,140.364258 
	C68.472481,143.720093 72.883049,146.932266 77.509995,149.794693 
	C79.788300,151.204163 82.466850,151.966644 85.105873,153.376556 
	C88.477631,154.433624 91.687851,155.603790 94.942070,155.742630 
	C102.082283,156.047256 109.419121,157.161301 116.405487,153.015625 
	C122.192810,150.064926 127.612762,147.174240 133.429718,144.230347 
	C134.593643,143.473221 135.360535,142.769302 136.089905,142.048279 
	C136.052368,142.031204 136.059998,142.113327 136.449875,142.270126 
	C136.931534,141.968643 137.023315,141.510361 137.079926,141.034027 
	C137.044739,141.015945 137.051727,141.094757 137.582977,141.146301 
	C138.104630,140.623077 138.095032,140.048340 138.242279,139.436951 
	C138.399124,139.400314 138.465286,139.085052 138.620514,139.294754 
	C139.040176,139.350250 139.304642,139.196045 140.023712,139.087982 
	C140.677673,138.424988 140.877014,137.715836 141.041550,137.007294 
	C141.006760,137.007874 141.018326,137.076477 141.306686,137.365082 
	C143.042450,135.444534 144.489868,133.235382 146.097717,130.715820 
	C148.511414,125.655136 150.764679,120.904877 153.017914,116.154617 
M60.652355,156.178421 
	C62.909966,154.524384 65.167572,152.870346 67.425186,151.216309 
	C67.119049,150.705872 66.812920,150.195419 66.506790,149.684982 
	C65.309052,150.152649 64.071693,150.540451 62.924374,151.109741 
	C61.702087,151.716232 60.564987,152.494400 59.390694,153.197617 
	C59.369743,150.981781 60.247513,149.449844 60.771034,147.805130 
	C61.068798,146.869629 60.787350,145.749786 60.766731,144.712952 
	C59.741619,144.817780 58.575294,144.647552 57.721439,145.085922 
	C56.054764,145.941620 54.562813,147.137634 52.013260,148.857285 
	C53.448196,144.868851 54.418621,142.171524 55.389050,139.474213 
	C54.755028,139.234329 54.121002,138.994446 53.486980,138.754562 
	C51.478760,142.616180 49.420929,146.453766 47.523880,150.369247 
	C47.281555,150.869415 47.665268,152.130020 48.134502,152.410889 
	C48.841923,152.834274 50.042725,153.060303 50.745731,152.739304 
	C52.440449,151.965485 53.968117,150.825821 55.563152,149.833710 
	C55.601139,152.132965 54.681770,153.645447 54.195061,155.286255 
	C53.921967,156.206909 54.006149,157.736191 54.588287,158.262695 
	C55.140736,158.762344 56.615681,158.516647 57.567551,158.220856 
	C58.475544,157.938721 59.232048,157.169067 60.652355,156.178421 
M93.498306,163.089294 
	C90.230743,165.566666 89.894608,168.928085 92.179359,171.785934 
	C93.246681,173.120972 97.370651,174.007385 98.072212,173.238510 
	C99.702797,171.451462 101.020462,168.436371 100.769966,166.100784 
	C100.412201,162.765106 97.405045,161.959976 93.498306,163.089294 
M66.268059,155.492111 
	C63.658688,157.687454 61.662655,160.381226 63.949001,163.593933 
	C65.132111,165.256393 67.649628,165.969223 69.564262,167.111099 
	C69.913216,166.521179 70.262169,165.931244 70.611122,165.341324 
	C68.791603,164.411331 66.972084,163.481339 65.152565,162.551361 
	C65.678940,162.013016 66.205322,161.474670 66.731705,160.936340 
	C68.533386,161.674423 70.335068,162.412506 72.123703,163.145248 
	C74.723289,157.654404 73.089142,155.231277 66.268059,155.492111 
M152.604294,154.210464 
	C153.663162,152.882004 154.722031,151.553528 155.875763,150.106064 
	C154.156097,148.224091 152.603348,146.266998 150.761032,144.637253 
	C150.038284,143.997894 148.666962,144.091721 147.591019,143.851639 
	C147.887527,144.811981 148.065155,145.831131 148.505219,146.720428 
	C149.427811,148.584824 150.488449,150.380890 151.492401,152.205017 
	C150.946548,152.554047 150.400681,152.903076 149.854813,153.252106 
	C147.832367,151.481750 145.809921,149.711411 143.787491,147.941071 
	C143.315002,148.187271 142.842529,148.433456 142.370041,148.679657 
	C142.909592,149.868210 143.179825,151.323776 144.041550,152.192886 
	C146.216125,154.386108 148.070786,158.193695 152.604294,154.210464 
M128.213638,169.154648 
	C128.213638,164.162262 128.213638,159.169861 128.213638,154.177475 
	C127.944405,154.055206 127.675179,153.932938 127.405945,153.810669 
	C126.490089,155.836395 125.574242,157.862106 124.689278,159.819519 
	C122.787888,158.800308 120.897240,157.786850 119.006592,156.773392 
	C118.814781,157.135422 118.622978,157.497467 118.431168,157.859497 
	C121.473671,161.723969 124.516167,165.588455 128.213638,169.154648 
M143.321991,160.774750 
	C144.477325,157.110580 142.953552,154.231247 139.682907,153.248337 
	C137.993164,152.740524 134.300659,154.032135 133.870865,155.306152 
	C133.179611,157.355164 133.689606,160.659302 135.040802,162.364227 
	C137.575089,165.561966 140.602448,164.278595 143.321991,160.774750 
M83.331467,164.109482 
	C84.047729,166.651016 80.427536,169.751129 84.038353,172.357803 
	C86.236916,167.387756 88.215691,162.914551 90.241135,158.335831 
	C86.616570,156.009583 83.541954,157.849731 83.331467,164.109482 
M108.386864,166.428024 
	C109.527023,165.297913 110.667183,164.167801 111.807343,163.037689 
	C111.565666,162.774582 111.323982,162.511475 111.082306,162.248367 
	C109.048935,162.682129 107.015564,163.115875 104.537392,163.644516 
	C104.985176,167.116882 105.421890,170.503342 105.858597,173.889816 
	C106.522240,173.825119 107.185875,173.760422 107.849518,173.695724 
	C107.944244,171.528122 108.038979,169.360535 108.386864,166.428024 
z"/>
<path fill="#0D8973" opacity="1.000000" stroke="none" 
	d="
M150.056427,79.866508 
	C151.312363,84.876106 152.568298,89.885712 153.487183,95.464073 
	C149.759872,99.597328 145.519165,99.638611 141.072006,98.492081 
	C141.043808,89.239265 141.043808,80.435799 141.043808,71.632332 
	C139.578506,71.900200 139.211624,72.134865 139.208038,72.374954 
	C139.084396,80.661209 138.995102,88.947975 138.579773,97.094040 
	C137.150284,95.542000 136.091309,94.088058 134.921814,92.729240 
	C133.212860,90.743622 131.702087,88.433815 129.614853,86.957985 
	C124.599197,83.411560 121.510155,78.873756 120.508476,72.802505 
	C120.262138,71.309418 119.743896,69.541214 118.720940,68.548164 
	C112.085655,62.106834 113.516815,55.438534 122.560600,52.731758 
	C123.224258,52.820599 123.609337,52.838211 124.285126,53.046326 
	C136.106781,59.207035 144.371124,68.302902 150.056427,79.866508 
z"/>
<path fill="#5E893E" opacity="1.000000" stroke="none" 
	d="
M139.569092,139.041824 
	C139.304642,139.196045 139.040176,139.350250 138.354370,139.049194 
	C130.676453,132.386185 122.775307,127.346725 113.291656,125.294029 
	C109.463432,124.465416 105.588173,123.854126 102.010757,122.923485 
	C103.619865,121.479286 104.952530,120.255531 106.621826,118.954491 
	C114.399841,116.222328 121.841209,113.567451 129.675812,110.874939 
	C133.107727,110.569130 136.146408,110.300972 139.474426,110.022705 
	C140.149399,110.017906 140.535019,110.023216 141.139984,110.278397 
	C142.342072,109.990341 143.695145,109.698051 144.243225,108.871796 
	C146.568817,105.365814 149.754974,103.865532 153.860596,104.061172 
	C153.376968,107.962257 152.893326,111.863350 152.713806,115.959526 
	C150.764679,120.904877 148.511414,125.655136 145.766144,130.773865 
	C143.855530,133.120377 142.436920,135.098419 141.018326,137.076477 
	C141.018326,137.076477 141.006760,137.007874 140.650116,137.059570 
	C140.052002,137.754791 139.810547,138.398315 139.569092,139.041824 
z"/>
<path fill="#5E893E" opacity="1.000000" stroke="none" 
	d="
M63.525993,140.076462 
	C62.121418,138.718475 60.716843,137.360489 59.098076,135.348114 
	C56.303196,130.057159 53.722511,125.420616 51.141827,120.784065 
	C50.108952,115.524376 49.076077,110.264679 48.480835,104.546181 
	C51.990746,105.576035 55.060097,107.070801 58.136951,108.549950 
	C59.164043,109.043716 60.210346,109.497528 61.537521,109.980858 
	C62.213131,110.000549 62.599091,110.008995 63.405624,110.118774 
	C66.864075,110.419586 69.901939,110.619041 73.342125,110.910133 
	C83.709557,112.592598 92.569939,116.596443 99.957581,123.419754 
	C98.663361,123.801720 97.676605,123.901733 96.691368,124.014946 
	C83.763222,125.500587 72.262779,129.935547 63.525993,140.076462 
z"/>
<path fill="#F2C56A" opacity="1.000000" stroke="none" 
	d="
M153.924591,103.603745 
	C149.754974,103.865532 146.568817,105.365814 144.243225,108.871796 
	C143.695145,109.698051 142.342072,109.990341 141.166199,109.815979 
	C141.015442,105.716263 141.057816,102.328850 141.100189,98.941429 
	C145.519165,99.638611 149.759872,99.597328 153.465683,95.852089 
	C153.850342,98.163002 153.919479,100.654655 153.924591,103.603745 
z"/>
<path fill="#F0C56B" opacity="1.000000" stroke="none" 
	d="
M61.247868,109.969604 
	C60.210346,109.497528 59.164043,109.043716 58.136951,108.549950 
	C55.060097,107.070801 51.990746,105.576035 48.527786,104.129349 
	C48.123714,101.582993 48.110321,98.994659 48.183140,95.914444 
	C51.629009,98.527985 55.469002,100.058441 60.609413,99.435669 
	C61.168427,103.218979 61.208145,106.594292 61.247868,109.969604 
z"/>
<path fill="#DEE8D8" opacity="1.000000" stroke="none" 
	d="
M150.091766,79.609634 
	C144.371124,68.302902 136.106781,59.207035 124.284241,52.760384 
	C123.990974,51.902695 123.989296,51.521450 123.987625,51.140202 
	C136.279129,56.435478 144.920853,65.448608 150.775757,77.713440 
	C150.605316,78.488503 150.366211,78.920631 150.091766,79.609634 
z"/>
<path fill="#56646E" opacity="1.000000" stroke="none" 
	d="
M40.624161,105.246147 
	C38.458843,105.042877 34.988110,104.769394 34.888252,104.036575 
	C34.523003,101.356155 34.456272,97.972725 35.840900,95.897453 
	C37.304379,93.704010 40.441216,94.645157 41.106583,97.396347 
	C41.678596,99.761520 40.994400,102.430496 40.624161,105.246147 
z"/>
<path fill="#505F69" opacity="1.000000" stroke="none" 
	d="
M26.314308,104.605331 
	C27.592138,102.180649 28.890848,100.062958 30.682343,97.141724 
	C28.251312,97.382858 26.964676,97.510475 25.678040,97.638092 
	C25.594620,97.012749 25.511198,96.387405 25.427778,95.762062 
	C27.375006,95.762062 29.322235,95.762062 31.269463,95.762062 
	C31.085197,98.313408 30.900930,100.864754 30.673336,104.016029 
	C30.489990,103.950798 31.678844,104.373779 32.867699,104.796753 
	C32.747242,105.332359 32.626785,105.867966 32.506329,106.403572 
	C30.449282,105.906494 28.392233,105.409409 26.314308,104.605331 
z"/>
<path fill="#3C4C5A" opacity="1.000000" stroke="none" 
	d="
M173.243805,104.195480 
	C172.793671,102.794975 172.083649,101.647278 171.367569,100.489761 
	C172.137329,99.845520 173.070572,99.064438 174.614563,97.772194 
	C172.661346,97.338905 171.390076,97.056900 170.118805,96.774895 
	C170.087708,96.455566 170.056595,96.136238 170.025482,95.816910 
	C171.617371,95.647713 174.489822,95.048943 174.599823,95.376854 
	C175.532166,98.156105 177.039200,101.443977 176.261124,103.913597 
	C175.340302,106.836273 172.068222,107.065987 168.410706,104.448280 
	C170.570129,104.448280 171.777023,104.448280 173.243805,104.195480 
z"/>
<path fill="#4C5B66" opacity="1.000000" stroke="none" 
	d="
M164.467529,100.170784 
	C166.640518,94.733734 161.483749,99.013672 160.663010,95.868874 
	C162.562622,95.713402 164.459656,95.148026 166.070969,95.600418 
	C166.868774,95.824402 167.915085,98.389549 167.498199,99.080505 
	C166.444687,100.826645 164.626129,102.111206 163.114075,103.580688 
	C162.708359,103.144203 162.302643,102.707710 161.896927,102.271225 
	C162.671234,101.665779 163.445526,101.060333 164.467529,100.170784 
z"/>
<path fill="#E2E1D3" opacity="1.000000" stroke="none" 
	d="
M51.023743,121.011017 
	C53.722511,125.420616 56.303196,130.057159 58.957531,135.091965 
	C56.102230,131.207794 53.173279,126.925385 50.214180,122.294243 
	C50.424572,121.709671 50.665115,121.473816 51.023743,121.011017 
z"/>
<path fill="#D2E2D0" opacity="1.000000" stroke="none" 
	d="
M51.338142,78.218849 
	C53.192940,74.273300 55.253277,70.490059 57.313610,66.706810 
	C57.855774,66.992081 58.397938,67.277359 58.940102,67.562630 
	C56.757893,71.502541 54.575684,75.442444 52.168129,79.635559 
	C51.809753,79.386223 51.676716,78.883682 51.338142,78.218849 
z"/>
<path fill="#0D8A73" opacity="1.000000" stroke="none" 
	d="
M48.730240,91.993713 
	C48.854321,92.326355 48.795921,92.879486 48.568138,93.654938 
	C48.448421,93.322906 48.498089,92.768555 48.730240,91.993713 
z"/>
<path fill="#0D8A73" opacity="1.000000" stroke="none" 
	d="
M49.792038,87.152222 
	C49.872280,87.477386 49.767616,88.006386 49.476391,88.734665 
	C49.395596,88.407982 49.501366,87.882019 49.792038,87.152222 
z"/>
<path fill="#F8C76C" opacity="1.000000" stroke="none" 
	d="
M72.939812,110.818512 
	C69.901939,110.619041 66.864075,110.419586 63.412010,109.656876 
	C63.067837,105.211502 63.137852,101.329376 63.207870,97.447250 
	C67.540215,91.201973 73.355286,86.364876 78.621246,80.996414 
	C80.016838,79.573662 80.655869,77.204170 81.152664,75.150925 
	C81.957573,71.824295 82.776749,69.016106 85.645355,66.374840 
	C90.419899,61.978676 87.546646,55.264370 80.395050,52.555908 
	C94.376686,46.498962 108.364731,46.139198 122.282013,52.660530 
	C113.516815,55.438534 112.085655,62.106834 118.720940,68.548164 
	C119.743896,69.541214 120.262138,71.309418 120.508476,72.802505 
	C121.510155,78.873756 124.599197,83.411560 129.614853,86.957985 
	C131.702087,88.433815 133.212860,90.743622 134.921814,92.729240 
	C136.091309,94.088058 137.150284,95.542000 138.646454,97.537354 
	C139.084534,102.091805 139.134811,106.062302 139.185089,110.032806 
	C136.146408,110.300972 133.107727,110.569130 129.635284,110.416534 
	C129.187241,106.686821 129.221069,103.376709 129.141434,100.069336 
	C129.090149,97.939842 129.693924,94.677345 128.589905,93.879448 
	C123.150200,89.948082 117.621887,85.157074 111.387619,83.575539 
	C104.764565,81.895378 97.313843,83.477745 89.849632,83.707550 
	C72.745590,92.024803 72.745590,92.024803 72.932510,110.322983 
	C72.934204,110.488167 72.937347,110.653336 72.939812,110.818512 
z"/>
<path fill="#E1EBDE" opacity="1.000000" stroke="none" 
	d="
M74.373360,36.329605 
	C74.178116,34.617481 74.113930,33.288826 74.049736,31.960175 
	C74.662292,31.858301 75.274841,31.756426 75.887390,31.654552 
	C76.691055,35.479527 77.531036,39.298752 78.141922,43.154270 
	C78.162529,43.284363 75.378624,44.432442 74.766754,43.967625 
	C73.557373,43.048901 72.954185,41.332211 71.991684,39.768959 
	C70.742210,41.360046 70.416954,41.581810 70.409691,41.813541 
	C70.344200,43.901901 70.334480,45.992008 70.308403,48.081600 
	C68.568336,46.830105 66.668938,45.745861 65.131699,44.281452 
	C63.499165,42.726257 62.210182,40.810429 60.771175,39.052082 
	C61.187992,38.595840 61.604809,38.139603 62.021626,37.683361 
	C63.799774,39.287136 65.577919,40.890911 68.122742,43.186176 
	C67.797684,40.171848 67.552185,37.895309 67.306694,35.618771 
	C67.639359,35.266502 67.972023,34.914234 68.304695,34.561966 
	C70.488396,36.449516 72.672104,38.337070 75.005013,40.353592 
	C74.840996,39.160782 74.672707,37.936932 74.373360,36.329605 
z"/>
<path fill="#DFEADD" opacity="1.000000" stroke="none" 
	d="
M101.230270,28.675480 
	C101.986298,31.478579 102.637054,33.962482 102.777832,36.474960 
	C102.953629,39.612495 100.131050,40.738522 93.545418,40.136799 
	C93.340439,36.306019 93.131416,32.399548 92.879456,27.690794 
	C95.825020,27.939894 98.361847,28.154430 101.230270,28.675480 
z"/>
<path fill="#EBECDB" opacity="1.000000" stroke="none" 
	d="
M122.560600,52.731758 
	C108.364731,46.139198 94.376686,46.498962 80.023628,52.434959 
	C78.869347,52.407894 78.024857,52.175049 76.229652,51.680069 
	C92.526375,44.424747 107.887169,43.908817 123.684761,50.936829 
	C123.989296,51.521450 123.990974,51.902695 123.993530,52.569885 
	C123.609337,52.838211 123.224258,52.820599 122.560600,52.731758 
z"/>
<path fill="#2E4B55" opacity="1.000000" stroke="none" 
	d="
M63.152184,96.973145 
	C63.137852,101.329376 63.067837,105.211502 62.991432,109.555527 
	C62.599091,110.008995 62.213131,110.000549 61.537521,109.980850 
	C61.208145,106.594292 61.168427,103.218979 61.044113,99.387024 
	C60.959515,89.824722 60.959515,80.719078 60.959515,71.613426 
	C61.659779,71.607140 62.360046,71.600861 63.060310,71.594574 
	C63.060310,74.757904 63.060310,77.921242 63.056145,81.905441 
	C63.362148,83.825928 63.672321,84.925545 63.982494,86.025154 
	C63.687160,89.516449 63.391827,93.007744 63.152184,96.973145 
z"/>
<path fill="#DFEADD" opacity="1.000000" stroke="none" 
	d="
M135.339142,36.168045 
	C134.550903,37.852161 133.894058,39.175739 133.025436,40.926056 
	C135.126312,40.926056 136.905487,40.926056 138.074646,40.926056 
	C136.734940,43.701622 135.414062,46.438179 133.887192,49.601501 
	C133.297501,48.385242 132.542709,46.828426 131.695923,45.081913 
	C130.571228,45.560699 129.334152,46.087318 128.097092,46.613937 
	C127.799500,46.323532 127.501907,46.033123 127.204323,45.742718 
	C129.122620,42.213528 131.003738,38.662270 133.051926,35.210144 
	C133.174454,35.003639 134.633438,35.590054 135.339142,36.168045 
z"/>
<path fill="#E0EBDE" opacity="1.000000" stroke="none" 
	d="
M107.613113,31.295229 
	C114.438187,31.117922 115.265991,32.648388 113.034653,41.032547 
	C110.518616,39.520821 105.898682,43.114136 105.360695,37.824245 
	C105.236832,36.606384 108.664253,35.027344 110.360550,33.690823 
	C109.753754,33.262459 108.508041,32.383064 107.613113,31.295229 
z"/>
<path fill="#E3ECDF" opacity="1.000000" stroke="none" 
	d="
M88.231064,37.227974 
	C86.841377,37.671707 85.836472,38.026730 84.831566,38.381756 
	C84.870270,38.691044 84.908974,39.000328 84.947678,39.309616 
	C86.630363,39.309616 88.313049,39.309616 89.995735,39.309616 
	C90.075020,39.822865 90.154305,40.336109 90.233582,40.849358 
	C88.164482,41.133892 85.561852,42.305428 84.168144,41.467113 
	C82.603508,40.525997 81.416565,37.760834 81.438431,35.804611 
	C81.452682,34.530205 83.819695,32.439220 85.309662,32.269756 
	C86.699913,32.111633 88.351341,33.973053 89.779953,35.084183 
	C89.870148,35.154331 89.025543,36.426376 88.231064,37.227974 
z"/>
<path fill="#DEEADD" opacity="1.000000" stroke="none" 
	d="
M117.167023,38.014755 
	C117.873245,36.149921 118.469063,34.647476 119.268997,32.630322 
	C121.808937,34.923832 127.520592,32.578598 126.472427,38.612381 
	C126.105698,40.723461 126.262794,44.091858 122.308327,44.254765 
	C122.308327,43.325504 122.277664,43.004162 122.313271,42.690342 
	C122.554642,40.562702 122.810013,38.436649 123.060852,36.310085 
	C121.766464,37.859177 120.522758,39.455250 119.152191,40.933735 
	C118.620171,41.507648 117.801537,41.815868 117.113464,42.245125 
	C117.094521,40.955795 117.075569,39.666470 117.167023,38.014755 
z"/>
<path fill="#0D8A73" opacity="1.000000" stroke="none" 
	d="
M64.130829,85.730118 
	C63.672321,84.925545 63.362148,83.825928 63.089607,82.362022 
	C66.962029,81.987068 65.624817,83.709656 64.130829,85.730118 
z"/>
<path fill="#0D8A73" opacity="1.000000" stroke="none" 
	d="
M61.233673,65.633408 
	C61.006626,65.618958 60.882889,65.494537 60.759148,65.370110 
	C60.951759,65.421211 61.144371,65.472321 61.233673,65.633408 
z"/>
<path fill="#0D8A73" opacity="1.000000" stroke="none" 
	d="
M65.261749,61.010975 
	C65.390205,60.839882 65.519653,60.819023 65.649109,60.798164 
	C65.520325,60.919182 65.391541,61.040195 65.261749,61.010975 
z"/>
<path fill="#0D8A73" opacity="1.000000" stroke="none" 
	d="
M70.633682,56.766296 
	C70.619194,56.993469 70.494720,57.117268 70.370255,57.241066 
	C70.421402,57.048351 70.472557,56.855633 70.633682,56.766296 
z"/>
<path fill="#0D8A73" opacity="1.000000" stroke="none" 
	d="
M72.633194,55.767353 
	C72.669655,55.801655 72.596725,55.733051 72.633194,55.767353 
z"/>
<path fill="#67C6BC" opacity="1.000000" stroke="none" 
	d="
M63.749359,140.364258 
	C72.262779,129.935547 83.763222,125.500587 96.691368,124.014946 
	C97.676605,123.901733 98.663361,123.801720 100.199524,123.371826 
	C101.083954,123.017342 101.412178,123.049294 101.734314,123.143929 
	C105.588173,123.854126 109.463432,124.465416 113.291656,125.294029 
	C122.775307,127.346725 130.676453,132.386185 138.199158,138.839508 
	C138.465286,139.085052 138.399124,139.400314 138.003265,139.666428 
	C137.422195,140.319946 137.236954,140.707352 137.051727,141.094757 
	C137.051727,141.094757 137.044739,141.015945 136.794113,141.082047 
	C136.382324,141.469879 136.221161,141.791595 136.059998,142.113327 
	C136.059998,142.113327 136.052368,142.031204 135.740356,142.035889 
	C134.629791,142.788239 133.831253,143.535889 133.032715,144.283539 
	C127.612762,147.174240 122.192810,150.064926 115.967621,152.956070 
	C112.039413,153.287445 108.911728,153.932175 105.794426,153.885315 
	C98.848289,153.780960 91.907349,153.331009 84.964287,153.021881 
	C82.466850,151.966644 79.788300,151.204163 77.509995,149.794693 
	C72.883049,146.932266 68.472481,143.720093 63.749359,140.364258 
z"/>
<path fill="#E7BB69" opacity="1.000000" stroke="none" 
	d="
M60.353752,156.396072 
	C59.232048,157.169067 58.475544,157.938721 57.567551,158.220856 
	C56.615681,158.516647 55.140736,158.762344 54.588287,158.262695 
	C54.006149,157.736191 53.921967,156.206909 54.195061,155.286255 
	C54.681770,153.645447 55.601139,152.132965 55.563152,149.833710 
	C53.968117,150.825821 52.440449,151.965485 50.745731,152.739304 
	C50.042725,153.060303 48.841923,152.834274 48.134502,152.410889 
	C47.665268,152.130020 47.281555,150.869415 47.523880,150.369247 
	C49.420929,146.453766 51.478760,142.616180 53.486980,138.754562 
	C54.121002,138.994446 54.755028,139.234329 55.389050,139.474213 
	C54.418621,142.171524 53.448196,144.868851 52.013260,148.857285 
	C54.562813,147.137634 56.054764,145.941620 57.721439,145.085922 
	C58.575294,144.647552 59.741619,144.817780 60.766731,144.712952 
	C60.787350,145.749786 61.068798,146.869629 60.771034,147.805130 
	C60.247513,149.449844 59.369743,150.981781 59.390694,153.197617 
	C60.564987,152.494400 61.702087,151.716232 62.924374,151.109741 
	C64.071693,150.540451 65.309052,150.152649 66.506790,149.684982 
	C66.812920,150.195419 67.119049,150.705872 67.425186,151.216309 
	C65.167572,152.870346 62.909966,154.524384 60.353752,156.396072 
z"/>
<path fill="#E7BB68" opacity="1.000000" stroke="none" 
	d="
M93.854050,162.959442 
	C97.405045,161.959976 100.412201,162.765106 100.769966,166.100784 
	C101.020462,168.436371 99.702797,171.451462 98.072212,173.238510 
	C97.370651,174.007385 93.246681,173.120972 92.179359,171.785934 
	C89.894608,168.928085 90.230743,165.566666 93.854050,162.959442 
z"/>
<path fill="#E6BA68" opacity="1.000000" stroke="none" 
	d="
M66.615936,155.317322 
	C73.089142,155.231277 74.723289,157.654404 72.123703,163.145248 
	C70.335068,162.412506 68.533386,161.674423 66.731705,160.936340 
	C66.205322,161.474670 65.678940,162.013016 65.152565,162.551361 
	C66.972084,163.481339 68.791603,164.411331 70.611122,165.341324 
	C70.262169,165.931244 69.913216,166.521179 69.564262,167.111099 
	C67.649628,165.969223 65.132111,165.256393 63.949001,163.593933 
	C61.662655,160.381226 63.658688,157.687454 66.615936,155.317322 
z"/>
<path fill="#E6BA68" opacity="1.000000" stroke="none" 
	d="
M152.355072,154.494507 
	C148.070786,158.193695 146.216125,154.386108 144.041550,152.192886 
	C143.179825,151.323776 142.909592,149.868210 142.370041,148.679657 
	C142.842529,148.433456 143.315002,148.187271 143.787491,147.941071 
	C145.809921,149.711411 147.832367,151.481750 149.854813,153.252106 
	C150.400681,152.903076 150.946548,152.554047 151.492401,152.205017 
	C150.488449,150.380890 149.427811,148.584824 148.505219,146.720428 
	C148.065155,145.831131 147.887527,144.811981 147.591019,143.851639 
	C148.666962,144.091721 150.038284,143.997894 150.761032,144.637253 
	C152.603348,146.266998 154.156097,148.224091 155.875763,150.106064 
	C154.722031,151.553528 153.663162,152.882004 152.355072,154.494507 
z"/>
<path fill="#E6BA68" opacity="1.000000" stroke="none" 
	d="
M127.886154,169.303787 
	C124.516167,165.588455 121.473671,161.723969 118.431168,157.859497 
	C118.622978,157.497467 118.814781,157.135422 119.006592,156.773392 
	C120.897240,157.786850 122.787888,158.800308 124.689278,159.819519 
	C125.574242,157.862106 126.490089,155.836395 127.405945,153.810669 
	C127.675179,153.932938 127.944405,154.055206 128.213638,154.177475 
	C128.213638,159.169861 128.213638,164.162262 127.886154,169.303787 
z"/>
<path fill="#EABD69" opacity="1.000000" stroke="none" 
	d="
M143.158157,161.119324 
	C140.602448,164.278595 137.575089,165.561966 135.040802,162.364227 
	C133.689606,160.659302 133.179611,157.355164 133.870865,155.306152 
	C134.300659,154.032135 137.993164,152.740524 139.682907,153.248337 
	C142.953552,154.231247 144.477325,157.110580 143.158157,161.119324 
M137.426636,155.328766 
	C137.363800,157.084885 137.300964,158.841003 137.238144,160.597122 
	C138.261841,160.593109 139.285538,160.589111 140.309235,160.585114 
	C139.875610,159.022949 139.468384,157.452469 138.980408,155.907471 
	C138.905762,155.671097 138.458130,155.552536 137.426636,155.328766 
z"/>
<path fill="#E5B968" opacity="1.000000" stroke="none" 
	d="
M83.250664,163.730072 
	C83.541954,157.849731 86.616570,156.009583 90.241135,158.335831 
	C88.215691,162.914551 86.236916,167.387756 84.038353,172.357803 
	C80.427536,169.751129 84.047729,166.651016 83.250664,163.730072 
z"/>
<path fill="#E8E8DC" opacity="1.000000" stroke="none" 
	d="
M85.105873,153.376556 
	C91.907349,153.331009 98.848289,153.780960 105.794426,153.885315 
	C108.911728,153.932175 112.039413,153.287445 115.600258,153.016083 
	C109.419121,157.161301 102.082283,156.047256 94.942070,155.742630 
	C91.687851,155.603790 88.477631,154.433624 85.105873,153.376556 
z"/>
<path fill="#E7BB68" opacity="1.000000" stroke="none" 
	d="
M108.260284,166.810486 
	C108.038979,169.360535 107.944244,171.528122 107.849518,173.695724 
	C107.185875,173.760422 106.522240,173.825119 105.858597,173.889816 
	C105.421890,170.503342 104.985176,167.116882 104.537392,163.644516 
	C107.015564,163.115875 109.048935,162.682129 111.082306,162.248367 
	C111.323982,162.511475 111.565666,162.774582 111.807343,163.037689 
	C110.667183,164.167801 109.527023,165.297913 108.260284,166.810486 
z"/>
<path fill="#F0EEE1" opacity="1.000000" stroke="none" 
	d="
M141.306686,137.365082 
	C142.436920,135.098419 143.855530,133.120377 145.605698,131.084290 
	C144.489868,133.235382 143.042450,135.444534 141.306686,137.365082 
z"/>
<path fill="#F0EEE1" opacity="1.000000" stroke="none" 
	d="
M133.429718,144.230347 
	C133.831253,143.535889 134.629791,142.788239 135.777893,142.052979 
	C135.360535,142.769302 134.593643,143.473221 133.429718,144.230347 
z"/>
<path fill="#F0EEE1" opacity="1.000000" stroke="none" 
	d="
M140.023712,139.087982 
	C139.810547,138.398315 140.052002,137.754791 140.684906,137.058990 
	C140.877014,137.715836 140.677673,138.424988 140.023712,139.087982 
z"/>
<path fill="#F0EEE1" opacity="1.000000" stroke="none" 
	d="
M137.582977,141.146301 
	C137.236954,140.707352 137.422195,140.319946 137.846436,139.703064 
	C138.095032,140.048340 138.104630,140.623077 137.582977,141.146301 
z"/>
<path fill="#F0EEE1" opacity="1.000000" stroke="none" 
	d="
M136.449875,142.270126 
	C136.221161,141.791595 136.382324,141.469879 136.829285,141.100128 
	C137.023315,141.510361 136.931534,141.968643 136.449875,142.270126 
z"/>
<path fill="#2C4954" opacity="1.000000" stroke="none" 
	d="
M139.474426,110.022705 
	C139.134811,106.062302 139.084534,102.091805 138.967560,97.677986 
	C138.995102,88.947975 139.084396,80.661209 139.208038,72.374954 
	C139.211624,72.134865 139.578506,71.900200 141.043808,71.632332 
	C141.043808,80.435799 141.043808,89.239265 141.071991,98.492081 
	C141.057816,102.328850 141.015442,105.716263 140.946854,109.566101 
	C140.535019,110.023216 140.149399,110.017906 139.474426,110.022705 
z"/>
<path fill="#F7F4E8" opacity="1.000000" stroke="none" 
	d="
M102.010757,122.923485 
	C101.412178,123.049294 101.083954,123.017342 100.507698,123.096008 
	C92.569939,116.596443 83.709557,112.592598 73.342125,110.910141 
	C72.937347,110.653336 72.934204,110.488167 72.932510,110.322983 
	C72.745590,92.024803 72.745590,92.024803 90.175217,83.844444 
	C95.049332,86.603607 99.370346,89.103546 103.317932,92.096092 
	C104.731041,93.167320 105.958092,95.395393 106.039658,97.152580 
	C106.377670,104.433746 106.245018,111.736771 106.285194,119.031769 
	C104.952530,120.255531 103.619865,121.479286 102.010757,122.923485 
M93.526810,109.934280 
	C93.952408,106.273636 94.410034,102.615784 94.731308,98.946007 
	C94.752640,98.702271 93.676552,98.058586 93.218552,98.148613 
	C92.546852,98.280624 91.413246,98.953590 91.443192,99.316216 
	C91.735992,102.861160 92.229843,106.389511 93.526810,109.934280 
M84.747505,98.358315 
	C84.531555,101.582016 84.162483,104.809784 84.247780,108.025497 
	C84.262291,108.572487 86.640495,109.786362 87.212440,109.455902 
	C89.138046,108.343353 87.703377,99.335236 84.747505,98.358315 
M77.646873,109.682083 
	C78.448456,109.684265 79.948624,109.733009 79.952019,109.681976 
	C80.195702,106.026360 80.351433,102.362869 80.358353,98.699722 
	C80.358681,98.525009 78.842545,98.039673 78.240372,98.261917 
	C77.686768,98.466225 77.089790,99.422195 77.072571,100.062111 
	C76.992874,103.023216 77.108627,105.989586 77.646873,109.682083 
M98.183609,103.558998 
	C98.186226,104.709496 97.953003,105.927589 98.257950,106.991417 
	C98.561241,108.049423 99.405289,108.952415 100.012215,109.923378 
	C100.720955,108.904228 101.892204,107.948250 102.041832,106.852730 
	C102.350105,104.595863 102.245705,102.251228 102.018784,99.971809 
	C101.950798,99.289001 100.942947,98.240341 100.312927,98.200851 
	C99.670479,98.160583 98.662788,99.027245 98.361633,99.730797 
	C98.000450,100.574631 98.217522,101.665977 98.183609,103.558998 
z"/>
<path fill="#334452" opacity="1.000000" stroke="none" 
	d="
M106.621826,118.954491 
	C106.245018,111.736771 106.377670,104.433746 106.039658,97.152580 
	C105.958092,95.395393 104.731041,93.167320 103.317932,92.096092 
	C99.370346,89.103546 95.049332,86.603607 90.550125,83.772339 
	C97.313843,83.477745 104.764565,81.895378 111.387619,83.575539 
	C117.621887,85.157074 123.150200,89.948082 128.589905,93.879448 
	C129.693924,94.677345 129.090149,97.939842 129.141434,100.069336 
	C129.221069,103.376709 129.187241,106.686821 129.242050,110.454178 
	C121.841209,113.567451 114.399841,116.222328 106.621826,118.954491 
z"/>
<path fill="#485254" opacity="1.000000" stroke="none" 
	d="
M137.804825,155.354126 
	C138.458130,155.552536 138.905762,155.671097 138.980408,155.907471 
	C139.468384,157.452469 139.875610,159.022949 140.309235,160.585114 
	C139.285538,160.589111 138.261841,160.593109 137.238144,160.597122 
	C137.300964,158.841003 137.363800,157.084885 137.804825,155.354126 
z"/>
<path fill="#78CDC4" opacity="1.000000" stroke="none" 
	d="
M93.096664,109.928429 
	C92.229843,106.389511 91.735992,102.861160 91.443192,99.316216 
	C91.413246,98.953590 92.546852,98.280624 93.218552,98.148613 
	C93.676552,98.058586 94.752640,98.702271 94.731308,98.946007 
	C94.410034,102.615784 93.952408,106.273636 93.096664,109.928429 
z"/>
<path fill="#78CDC4" opacity="1.000000" stroke="none" 
	d="
M85.159454,98.215897 
	C87.703377,99.335236 89.138046,108.343353 87.212440,109.455902 
	C86.640495,109.786362 84.262291,108.572487 84.247780,108.025497 
	C84.162483,104.809784 84.531555,101.582016 85.159454,98.215897 
z"/>
<path fill="#6FCAC1" opacity="1.000000" stroke="none" 
	d="
M77.400620,109.318069 
	C77.108627,105.989586 76.992874,103.023216 77.072571,100.062111 
	C77.089790,99.422195 77.686768,98.466225 78.240372,98.261917 
	C78.842545,98.039673 80.358681,98.525009 80.358353,98.699722 
	C80.351433,102.362869 80.195702,106.026360 79.952019,109.681976 
	C79.948624,109.733009 78.448456,109.684265 77.400620,109.318069 
z"/>
<path fill="#78CDC4" opacity="1.000000" stroke="none" 
	d="
M98.183899,103.104568 
	C98.217522,101.665977 98.000450,100.574631 98.361633,99.730797 
	C98.662788,99.027245 99.670479,98.160583 100.312927,98.200851 
	C100.942947,98.240341 101.950798,99.289001 102.018784,99.971809 
	C102.245705,102.251228 102.350105,104.595863 102.041832,106.852730 
	C101.892204,107.948250 100.720955,108.904228 100.012207,109.923378 
	C99.405289,108.952415 98.561241,108.049423 98.257950,106.991417 
	C97.953003,105.927589 98.186226,104.709496 98.183899,103.104568 
z"/>
</svg>